<?xml version="1.0" encoding="UTF-8" standalone="no"?>
<svg width="438px" height="504px" viewBox="0 0 438 504" version="1.1" xmlns="http://www.w3.org/2000/svg" xmlns:xlink="http://www.w3.org/1999/xlink">
    <!-- Generator: Sketch 39.1 (31720) - http://www.bohemiancoding.com/sketch -->
    <title>logo-simpler</title>
    <desc>Created with Sketch.</desc>
    <defs></defs>
    <g id="nodeschool-oulu" stroke="none" stroke-width="1" fill="none" fill-rule="evenodd">
        <g id="logo-simpler" transform="translate(7.000000, 7.000000)">
            <path d="M423.302447,367.095586 C423.302447,367.150851 423.263895,367.217947 423.215931,367.245684 L211.737737,489.544159 C211.689955,489.571791 211.612668,489.571896 211.564704,489.544159 L0.0865163846,367.245672 C0.0387347048,367.21804 2.22219286e-10,367.151049 4.98684511e-10,367.095574 L1.21946891e-06,122.498614 C1.21974432e-06,122.443349 0.0385538716,122.376253 0.086517609,122.348515 L211.564716,0.0500326898 C211.612498,0.0224003982 211.689785,0.0222951152 211.737749,0.0500326898 L423.215931,122.348515 C423.263713,122.376148 423.302447,122.443138 423.302447,122.498614 L423.302447,367.095586 Z" id="background" stroke="#E2006E" stroke-width="13.8820276" fill="#FFFFFF"></path>
            <g id="foreground" transform="translate(67.000000, 37.000000)">
                <path d="M226.957052,48.9607223 L142.573285,0.316027088 L142.573285,0.316027088 C142.462108,0.20496614 142.35093,0.20496614 142.239753,0.20496614 L142.239753,0.20496614 L142.239753,0.20496614 L142.128575,0.20496614 L142.017397,0.20496614 L141.683865,0.20496614 C141.683865,0.20496614 141.683865,0.20496614 141.572687,0.20496614 L141.46151,0.20496614 L141.016799,0.20496614 L141.016799,0.20496614 L141.016799,0.20496614 L141.016799,0.20496614 C140.905622,0.20496614 140.794444,0.316027088 140.683267,0.316027088 L140.683267,0.316027088 L57.6336308,48.1832957 C56.6330328,48.7386005 56.2995001,49.9602709 56.8553879,50.9598194 C57.4112757,51.9593679 58.7454064,52.2925508 59.6348269,51.737246 L133.456725,9.20090293 L102.104654,49.1828442 C101.437589,50.0713318 101.548766,51.4040632 102.438187,52.0704289 C103.327607,52.7367946 104.661738,52.6257336 105.328803,51.737246 L139.571491,8.09029345 L139.571491,50.7376975 C139.571491,51.848307 140.460912,52.8478555 141.683865,52.8478555 C142.906818,52.8478555 143.796238,51.9593679 143.796238,50.7376975 L143.796238,8.09029345 L178.038926,51.737246 C178.483637,52.2925508 179.039524,52.5146727 179.70659,52.5146727 C180.1513,52.5146727 180.59601,52.4036117 180.929543,52.0704289 C181.818963,51.4040632 181.930141,50.0713318 181.263075,49.1828442 L149.911004,9.20090293 L225.067033,52.5146727 C225.400566,52.7367946 225.734099,52.7367946 226.067631,52.7367946 C226.734697,52.7367946 227.51294,52.4036117 227.846472,51.737246 C228.291183,50.8487585 227.95765,49.5160271 226.957052,48.9607223 L226.957052,48.9607223 Z" id="top-stripes" fill="#ED037C"></path>
                <path d="M223.621725,362.374718 L149.911004,404.911061 L181.263075,364.92912 C181.930141,364.040632 181.818963,362.707901 180.929543,362.041535 C180.040122,361.375169 178.705992,361.48623 178.038926,362.374718 L143.796238,406.02167 L143.796238,363.374266 C143.796238,362.263657 142.906818,361.264108 141.683865,361.264108 C140.460912,361.264108 139.571491,362.152596 139.571491,363.374266 L139.571491,406.02167 L105.328803,362.374718 C104.661738,361.48623 103.327607,361.375169 102.438187,362.041535 C101.548766,362.707901 101.437589,364.040632 102.104654,364.92912 L133.456725,404.911061 L58.3006962,361.597291 C57.3000981,361.041986 56.077145,361.375169 55.5212572,362.374718 C54.9653694,363.374266 55.2989021,364.595937 56.2995001,365.151242 L140.683267,413.795937 C141.016799,413.906998 141.016799,413.906998 141.127977,413.906998 C141.46151,413.906998 141.683865,414.018059 141.795042,414.018059 C142.017397,414.018059 142.128575,414.018059 142.239753,413.906998 C142.573285,413.906998 142.573285,413.795937 142.684463,413.795937 L225.845276,365.928668 C226.623519,365.484424 226.957052,364.151693 226.401164,363.152144 C225.845276,362.152596 224.511146,361.819413 223.621725,362.374718 Z" id="bottom-stripes" fill="#ED037C"></path>
                <ellipse id="bottom-dot-right" fill="#ED037C" cx="231.960031" cy="359.265022" rx="2.55708384" ry="2.55440181"></ellipse>
                <ellipse id="bottom-dot-left" fill="#ED037C" cx="50.1847233" cy="359.265022" rx="2.55708384" ry="2.55440181"></ellipse>
                <path d="M193.433271,358.10863 C194.211514,358.10863 194.878579,357.442264 194.878579,356.664837 C194.878579,355.887411 194.211514,355.221045 193.433271,355.221045 L187.429683,355.221045 L187.429683,345.003438 C187.429683,344.11495 186.762617,343.337524 185.762019,343.337524 C184.872599,343.337524 184.094356,344.003889 184.094356,345.003438 L184.094356,356.442715 C184.205533,357.442264 184.983776,358.10863 185.873197,358.10863 L193.433271,358.10863 Z" id="Shape" fill="#ED037C" transform="translate(189.486468, 350.723077) rotate(35.000000) translate(-189.486468, -350.723077) "></path>
                <path d="M95.0258824,358.275221 C99.5841623,358.275221 102.919489,354.832332 102.919489,350.723077 L102.919489,350.723077 C102.919489,346.502761 99.6953399,343.170932 95.13706,343.170932 C90.5787801,343.170932 87.2434534,346.613822 87.2434534,350.723077 L87.2434534,350.723077 C87.2434534,354.943393 90.4676025,358.275221 95.0258824,358.275221 L95.0258824,358.275221 Z M90.6899577,350.723077 C90.6899577,348.168675 92.4687986,346.169578 95.13706,346.169578 C97.6941438,346.169578 99.5841623,348.279736 99.5841623,350.834138 L99.5841623,350.834138 C99.5841623,353.388539 97.8053214,355.387636 95.13706,355.387636 C92.4687986,355.276576 90.6899577,353.277478 90.6899577,350.723077 L90.6899577,350.723077 L90.6899577,350.723077 Z" id="Shape" fill="#ED037C" transform="translate(95.081471, 350.723077) rotate(-35.000000) translate(-95.081471, -350.723077) "></path>
                <path d="M147.923168,353.298442 C147.923168,353.298442 149.417116,353.512237 149.417116,351.906017 C149.417116,350.299797 147.923168,350.299797 147.923168,350.299797 C147.923168,350.299797 142.729354,350.299797 141.743791,350.299797 C139.186707,350.299797 137.519043,348.189639 137.519043,345.635237 C137.519043,343.080835 139.297884,341.081738 141.743791,341.081738 C142.855566,341.081738 147.925271,341.081738 147.925271,341.081738 C147.925271,341.081738 149.417116,341.330782 149.417116,339.654877 C149.417116,337.978973 147.925271,338.083093 147.925271,338.083093 C147.925271,338.083093 143.967342,338.083093 141.743791,338.083093 C137.185511,338.083093 134.072539,341.525982 134.072539,345.635237 C134.294894,349.966614 137.519043,353.298442 141.743791,353.298442 C144.078519,353.298442 147.923168,353.298442 147.923168,353.298442 Z" id="Shape" fill="#ED037C" transform="translate(141.744828, 345.694856) rotate(-90.000000) translate(-141.744828, -345.694856) "></path>
                <g id="nodeschool-banner" transform="translate(64.860172, 73.060948)" fill="#ED037C">
                    <path d="M2.33472872,15.1042889 C3.22414919,15.1042889 3.89121454,14.4379233 3.89121454,13.5494357 L3.89121454,5.66410835 L10.3395129,14.1047404 C10.7842231,14.6600451 11.2289334,15.1042889 12.0071763,15.1042889 L12.1183538,15.1042889 C13.0077743,15.1042889 13.7860172,14.4379233 13.7860172,13.4383747 L13.7860172,1.77697517 C13.7860172,0.888487585 13.1189519,0.222121896 12.2295314,0.222121896 C11.3401109,0.222121896 10.6730456,0.888487585 10.6730456,1.77697517 L10.6730456,9.32911964 L4.44710233,1.11060948 C4.00239209,0.55530474 3.55768186,0.111060948 2.77943895,0.111060948 L2.44590628,0.111060948 C1.55648581,0.111060948 0.778242907,0.777426637 0.778242907,1.77697517 L0.778242907,13.4383747 C0.778242907,14.4379233 1.44530826,15.1042889 2.33472872,15.1042889 L2.33472872,15.1042889 Z" id="Shape"></path>
                    <path d="M24.4590628,15.2153499 C29.0173427,15.2153499 32.3526694,11.7724605 32.3526694,7.66320542 L32.3526694,7.66320542 C32.3526694,3.44288939 29.1285202,0.111060948 24.5702404,0.111060948 C20.0119605,0.111060948 16.6766337,3.55395034 16.6766337,7.66320542 L16.6766337,7.66320542 C16.6766337,11.8835214 19.9007829,15.2153499 24.4590628,15.2153499 L24.4590628,15.2153499 Z M20.123138,7.66320542 C20.123138,5.10880361 21.901979,3.10970655 24.5702404,3.10970655 C27.1273242,3.10970655 29.0173427,5.21986456 29.0173427,7.77426637 L29.0173427,7.77426637 C29.0173427,10.3286682 27.2385017,12.3277652 24.5702404,12.3277652 C21.901979,12.2167043 20.123138,10.2176072 20.123138,7.66320542 L20.123138,7.66320542 L20.123138,7.66320542 Z" id="Shape"></path>
                    <path d="M40.9133414,14.993228 C45.5827988,14.993228 48.6957705,11.7724605 48.6957705,7.66320542 C48.6957705,3.55395034 45.4716213,0.333182844 40.9133414,0.333182844 L36.7997717,0.333182844 C35.9103513,0.333182844 35.1321084,0.999548533 35.1321084,1.99909707 L35.1321084,13.3273138 C35.2432859,14.3268623 35.9103513,14.993228 36.7997717,14.993228 L40.9133414,14.993228 Z M38.4674351,3.22076749 L40.9133414,3.22076749 C43.5816028,3.22076749 45.3604437,4.99774266 45.3604437,7.66320542 L45.3604437,7.66320542 C45.3604437,10.2176072 43.5816028,12.1056433 40.9133414,12.1056433 L38.4674351,12.1056433 L38.4674351,3.22076749 L38.4674351,3.22076749 Z" id="Shape"></path>
                    <path d="M53.2540504,14.993228 L61.4811897,14.993228 C62.2594326,14.993228 62.9264979,14.3268623 62.9264979,13.5494357 C62.9264979,12.772009 62.2594326,12.1056433 61.4811897,12.1056433 L54.8105362,12.1056433 L54.8105362,8.99593679 L60.3694141,8.99593679 C61.147657,8.99593679 61.8147223,8.32957111 61.8147223,7.55214447 C61.8147223,6.77471783 61.147657,6.10835214 60.3694141,6.10835214 L54.8105362,6.10835214 L54.8105362,3.10970655 L61.3700121,3.10970655 C62.148255,3.10970655 62.8153204,2.44334086 62.8153204,1.66591422 C62.8153204,0.888487585 62.148255,0.222121896 61.3700121,0.222121896 L53.2540504,0.222121896 C52.3646299,0.222121896 51.586387,0.888487585 51.586387,1.88803612 L51.586387,13.3273138 C51.6975645,14.3268623 52.3646299,14.993228 53.2540504,14.993228 L53.2540504,14.993228 Z" id="Shape"></path>
                    <path d="M65.4835817,13.4383747 C67.1512451,14.6600451 69.0412636,15.2153499 71.0424597,15.2153499 C74.2666088,15.2153499 76.49016,13.5494357 76.49016,10.661851 L76.49016,10.661851 C76.49016,8.10744921 74.8224966,6.99683973 71.8207026,6.21941309 C69.2636187,5.5530474 68.5965534,5.21986456 68.5965534,4.33137698 L68.5965534,4.33137698 C68.5965534,3.66501129 69.2636187,2.9986456 70.4865719,2.9986456 C71.4871699,2.9986456 72.4877679,3.33182844 73.5995435,3.99819413 C73.8218986,4.10925508 74.1554313,4.22031603 74.3777864,4.22031603 C75.2672069,4.22031603 75.9342722,3.55395034 75.9342722,2.7765237 C75.9342722,2.11015801 75.6007395,1.66591422 75.2672069,1.44379233 C73.9330762,0.55530474 72.3765904,0.111060948 70.5977494,0.111060948 C67.5959554,0.111060948 65.4835817,1.88803612 65.4835817,4.55349887 L65.4835817,4.55349887 C65.4835817,7.44108352 67.3736002,8.32957111 70.3753943,8.99593679 C72.8213006,9.66230248 73.3771884,9.99548533 73.3771884,10.8839729 L73.3771884,10.8839729 C73.3771884,11.7724605 72.5989455,12.2167043 71.2648148,12.2167043 C69.8195065,12.2167043 68.5965534,11.6613995 67.4847778,10.8839729 C67.2624227,10.772912 66.92889,10.5507901 66.5953573,10.5507901 C65.7059369,10.5507901 65.0388715,11.2171558 65.0388715,11.9945824 C64.8165164,12.772009 65.1500491,13.2162528 65.4835817,13.4383747 L65.4835817,13.4383747 Z" id="Shape"></path>
                    <path d="M86.05143,15.2153499 C88.3861587,15.2153499 89.9426445,14.5489842 91.2767752,13.3273138 C91.6103079,13.1051919 91.832663,12.6609481 91.832663,12.2167043 C91.832663,11.4392777 91.1655977,10.772912 90.2761772,10.772912 C89.9426445,10.772912 89.6091119,10.8839729 89.2755792,11.1060948 C88.3861587,11.8835214 87.4967383,12.2167043 86.05143,12.2167043 C83.4943462,12.2167043 81.8266828,10.1065463 81.8266828,7.55214447 L81.8266828,7.55214447 C81.8266828,4.99774266 83.6055237,2.9986456 86.05143,2.9986456 C87.1632056,2.9986456 88.1638036,3.33182844 89.0532241,3.99819413 C89.2755792,4.10925508 89.6091119,4.33137698 90.0538221,4.33137698 C90.9432426,4.33137698 91.6103079,3.66501129 91.6103079,2.7765237 C91.6103079,2.22121896 91.2767752,1.77697517 90.9432426,1.44379233 C89.7202894,0.55530474 88.2749812,0 86.05143,0 C81.4931501,0 78.3801785,3.44288939 78.3801785,7.55214447 L78.3801785,7.55214447 C78.6025336,11.8835214 81.8266828,15.2153499 86.05143,15.2153499 L86.05143,15.2153499 Z" id="Shape"></path>
                    <path d="M96.3909429,15.1042889 C97.2803634,15.1042889 98.0586063,14.4379233 98.0586063,13.4383747 L98.0586063,8.99593679 L104.062194,8.99593679 L104.062194,13.4383747 C104.062194,14.3268623 104.72926,15.1042889 105.729858,15.1042889 C106.619278,15.1042889 107.397521,14.4379233 107.397521,13.4383747 L107.397521,1.77697517 C107.397521,0.888487585 106.730456,0.111060948 105.729858,0.111060948 C104.840437,0.111060948 104.062194,0.777426637 104.062194,1.77697517 L104.062194,6.10835214 L98.0586063,6.10835214 L98.0586063,1.77697517 C98.0586063,0.888487585 97.3915409,0.111060948 96.3909429,0.111060948 C95.5015224,0.111060948 94.7232795,0.777426637 94.7232795,1.77697517 L94.7232795,13.4383747 C94.7232795,14.4379233 95.3903449,15.1042889 96.3909429,15.1042889 L96.3909429,15.1042889 Z" id="Shape"></path>
                    <path d="M117.848212,15.2153499 C122.406492,15.2153499 125.630641,11.7724605 125.630641,7.66320542 L125.630641,7.66320542 C125.630641,3.44288939 122.406492,0.111060948 117.848212,0.111060948 C113.289932,0.111060948 109.954605,3.55395034 109.954605,7.66320542 L109.954605,7.66320542 C110.065783,11.8835214 113.289932,15.2153499 117.848212,15.2153499 L117.848212,15.2153499 Z M113.401109,7.66320542 C113.401109,5.10880361 115.17995,3.10970655 117.848212,3.10970655 C120.405295,3.10970655 122.295314,5.21986456 122.295314,7.77426637 L122.295314,7.77426637 C122.295314,10.3286682 120.516473,12.3277652 117.848212,12.3277652 C115.291128,12.2167043 113.401109,10.2176072 113.401109,7.66320542 L113.401109,7.66320542 L113.401109,7.66320542 Z" id="Shape"></path>
                    <path d="M135.747798,15.2153499 C140.306078,15.2153499 143.641405,11.7724605 143.641405,7.66320542 L143.641405,7.66320542 C143.641405,3.44288939 140.417256,0.111060948 135.858976,0.111060948 C131.300696,0.111060948 127.965369,3.55395034 127.965369,7.66320542 L127.965369,7.66320542 C127.965369,11.8835214 131.189519,15.2153499 135.747798,15.2153499 L135.747798,15.2153499 Z M131.300696,7.66320542 C131.300696,5.10880361 133.079537,3.10970655 135.747798,3.10970655 C138.304882,3.10970655 140.194901,5.21986456 140.194901,7.77426637 L140.194901,7.77426637 C140.194901,10.3286682 138.41606,12.3277652 135.747798,12.3277652 C133.190715,12.2167043 131.300696,10.2176072 131.300696,7.66320542 L131.300696,7.66320542 L131.300696,7.66320542 Z" id="Shape"></path>
                    <path d="M148.088507,14.993228 L155.648581,14.993228 C156.426824,14.993228 157.09389,14.3268623 157.09389,13.5494357 C157.09389,12.772009 156.426824,12.1056433 155.648581,12.1056433 L149.644993,12.1056433 L149.644993,1.88803612 C149.644993,0.999548533 148.977928,0.222121896 147.97733,0.222121896 C147.087909,0.222121896 146.309667,0.888487585 146.309667,1.88803612 L146.309667,13.3273138 C146.420844,14.3268623 147.199087,14.993228 148.088507,14.993228 L148.088507,14.993228 Z" id="Shape"></path>
                </g>
                <g id="oulu-building" transform="translate(0.691630, 113.634361)">
                    <path d="M210.153543,61.3964943 C210.153543,61.3964943 210.153543,50.8528056 224.743803,45.830352 L219.993494,34.2235072 C219.970616,34.1676067 220.00369,34.1221722 220.052164,34.1220612 L231.43029,34.0960182 C231.485571,34.0958917 231.530385,34.0572776 231.530385,33.9979801 L231.530385,0.0978089653 C231.530385,0.0437905654 231.573363,-2.84217094e-14 231.626317,-2.84217094e-14 L257.927722,-2.84217094e-14 C257.980704,-2.84217094e-14 257.985672,0.0319399631 257.950005,0.0619327841 L249.578107,7.10201989 C249.537432,7.13622442 249.538043,7.1964137 249.56958,7.22689582 L256.972213,14.3818339 C257.008179,14.4165964 256.995958,14.444777 256.944975,14.444777 L231.622746,14.4447772 C231.571736,14.4447772 231.530385,14.4880517 231.530385,14.550505 L231.530385,33.9900613 C231.530385,34.0484531 231.582921,34.0957891 231.632253,34.0957891 L243.211853,34.09579 C243.268113,34.09579 243.298147,34.1294648 243.273145,34.1835301 L237.885074,45.8346955 C252.952212,50.8558526 253.181936,61.4004056 253.181936,61.4004056 L253.181936,130.219788 L210.157671,130.219788 L210.153543,61.3964943 Z" id="path1919" stroke="#ED037C" stroke-width="4.8"></path>
                    <path d="M147.885827,61.3964943 C147.885827,61.3964943 147.885827,50.8528056 162.476086,45.830352 L157.725777,34.2235072 C157.702899,34.1676067 157.735974,34.1221722 157.784448,34.1220612 L169.162574,34.0960182 C169.217855,34.0958917 169.262669,34.0572776 169.262669,33.9979801 L169.262669,0.0978089653 C169.262669,0.0437905654 169.305646,-2.84217094e-14 169.358601,-2.84217094e-14 L195.660006,-2.84217094e-14 C195.712987,-2.84217094e-14 195.717955,0.0319399631 195.682289,0.0619327841 L187.310391,7.10201989 C187.269715,7.13622442 187.270326,7.1964137 187.301864,7.22689582 L194.704497,14.3818339 C194.740463,14.4165964 194.728242,14.444777 194.677259,14.444777 L169.355029,14.4447772 C169.30402,14.4447772 169.262669,14.4880517 169.262669,14.550505 L169.262669,33.9900613 C169.262669,34.0484531 169.315204,34.0957891 169.364537,34.0957891 L180.944136,34.09579 C181.000396,34.09579 181.030431,34.1294648 181.005428,34.1835301 L175.617357,45.8346955 C190.684496,50.8558526 190.914219,61.4004056 190.914219,61.4004056 L190.914219,130.125856 C190.914219,130.177733 190.865623,130.219788 190.819473,130.219788 L147.984701,130.219788 C147.932374,130.219788 147.889952,130.169905 147.889949,130.125851 L147.885827,61.3964943 Z" id="path1919" stroke="#ED037C" stroke-width="4.8"></path>
                    <path d="M86.7300337,61.3964943 C86.7300337,61.3964943 86.7300337,50.8528056 101.320293,45.830352 L96.5699845,34.2235072 C96.5471062,34.1676067 96.5801808,34.1221722 96.6286549,34.1220612 L108.006781,34.0960182 C108.062062,34.0958917 108.106876,34.0572776 108.106876,33.9979801 L108.106876,0.0978089653 C108.106876,0.0437905654 108.149853,-2.84217094e-14 108.202808,-2.84217094e-14 L134.504213,-2.84217094e-14 C134.557194,-2.84217094e-14 134.562162,0.0319399631 134.526496,0.0619327841 L126.154598,7.10201989 C126.113922,7.13622442 126.114533,7.1964137 126.146071,7.22689582 L133.548704,14.3818339 C133.58467,14.4165964 133.572449,14.444777 133.521466,14.444777 L108.199236,14.4447772 C108.148227,14.4447772 108.106876,14.4880517 108.106876,14.550505 L108.106876,33.9900613 C108.106876,34.0484531 108.159411,34.0957891 108.208744,34.0957891 L119.788343,34.09579 C119.844603,34.09579 119.874638,34.1294648 119.849636,34.1835301 L114.461564,45.8346955 C129.528703,50.8558526 129.758426,61.4004056 129.758426,61.4004056 L129.758426,130.125856 C129.758426,130.177733 129.70983,130.219788 129.66368,130.219788 L86.8289077,130.219788 C86.7765809,130.219788 86.7341587,130.169905 86.734156,130.125851 L86.7300337,61.3964943 Z" id="path1919" stroke="#ED037C" stroke-width="4.8"></path>
                    <path d="M23.3503937,61.3964943 C23.3503937,61.3964943 23.3503937,50.8528056 37.9406533,45.830352 L33.1903446,34.2235072 C33.1674663,34.1676067 33.2005408,34.1221722 33.249015,34.1220612 L44.6271408,34.0960182 C44.6824218,34.0958917 44.727236,34.0572776 44.727236,33.9979801 L44.727236,0.0978089653 C44.727236,0.0437905654 44.7702134,-2.84217094e-14 44.8231676,-2.84217094e-14 L71.1245729,-2.84217094e-14 C71.1775544,-2.84217094e-14 71.1825223,0.0319399631 71.1468556,0.0619327841 L62.7749576,7.10201989 C62.7342825,7.13622442 62.7348935,7.1964137 62.7664309,7.22689582 L70.1690641,14.3818339 C70.20503,14.4165964 70.1928089,14.444777 70.141826,14.444777 L44.8195962,14.4447772 C44.7685871,14.4447772 44.727236,14.4880517 44.727236,14.550505 L44.727236,33.9900613 C44.727236,34.0484531 44.7797711,34.0957891 44.8291036,34.0957891 L56.4087033,34.09579 C56.4649632,34.09579 56.494998,34.1294648 56.4699955,34.1835301 L51.0819242,45.8346955 C66.1490628,50.8558526 66.3787864,61.4004056 66.3787864,61.4004056 L66.3787864,130.125856 C66.3787864,130.177733 66.3301902,130.219788 66.2840404,130.219788 L23.4492677,130.219788 C23.3969409,130.219788 23.3545187,130.169905 23.354516,130.125851 L23.3503937,61.3964943 Z" id="path1919" stroke="#ED037C" stroke-width="4.8"></path>
                    <path d="M55.4884913,93.4911299 C55.5479636,93.4911299 55.5961754,93.4419992 55.5961754,93.3817617 L55.5961754,76.3643641 C55.5961754,76.3643641 53.19617,70.1369714 45.3992574,70.1183672 C38.345199,70.1055212 35.5815523,76.3643641 35.5815523,76.3643641 L35.5815523,93.3817617 C35.5815523,93.4421641 35.6256275,93.4911299 35.6892364,93.4911299 L55.4884913,93.4911299 Z" id="path1929" stroke="#ED037C" stroke-width="4.8"></path>
                    <path d="M118.868131,93.4911299 C118.927604,93.4911299 118.975815,93.4419992 118.975815,93.3817617 L118.975815,76.3643641 C118.975815,76.3643641 116.57581,70.1369714 108.778897,70.1183672 C101.724839,70.1055212 98.9611923,76.3643641 98.9611923,76.3643641 L98.9611923,93.3817617 C98.9611923,93.4421641 99.0052675,93.4911299 99.0688764,93.4911299 L118.868131,93.4911299 Z" id="path1929" stroke="#ED037C" stroke-width="4.8"></path>
                    <path d="M0.0103406324,108.059902 C0.0103464705,108.004725 0.0591842397,107.959995 0.119353517,107.959995 L30.0043178,107.959995 C30.0645181,107.959995 30.1133201,108.003341 30.1133201,108.065896 L30.1133201,127.537271 C30.1133201,127.595758 30.1667378,127.643171 30.2077824,127.643171 L62.9479941,127.643171 C63.0001641,127.643171 63.0424563,127.599826 63.0424563,127.537271 L63.0424563,108.065896 C63.0424563,108.007409 63.0898383,107.959995 63.1482197,107.959995 L92.1451781,107.959995 C92.2035896,107.959995 92.2509415,108.003341 92.2509415,108.065896 L92.2509415,127.537271 C92.2509415,127.595758 92.3031129,127.643171 92.3431999,127.643171 L124.319574,127.643171 C124.370527,127.643171 124.411832,127.599826 124.411832,127.537271 L124.411832,108.065896 C124.411832,108.007409 124.463798,107.959995 124.503726,107.959995 L156.353656,107.959995 C156.404407,107.959995 156.445549,108.003341 156.445549,108.065896 L156.445549,127.537271 C156.445549,127.595758 156.496598,127.643171 156.535823,127.643171 L187.824226,127.643171 C187.874083,127.643171 187.9145,127.599826 187.9145,127.537271 L187.9145,108.065896 C187.9145,108.007409 187.962797,107.959995 188.022306,107.959995 L217.579468,107.959995 C217.639008,107.959995 217.687275,108.003341 217.687275,108.065896 L217.687275,127.537271 C217.687275,127.595758 217.73924,127.643171 217.779169,127.643171 L249.629098,127.643171 C249.67985,127.643171 249.720992,127.599826 249.720992,127.537271 L249.720992,108.065896 C249.720992,108.007409 249.772246,107.959995 249.811629,107.959995 L281.226011,107.959995 C281.276068,107.959995 281.316648,108.000031 281.316648,108.059902 L281.316648,205.803177 C281.316648,205.858354 281.265405,205.903084 281.219958,205.903084 L0.0966781238,205.903084 C0.0432778059,205.903084 -7.46895577e-06,205.863048 -1.1342681e-06,205.803177 L0.0103406324,108.059902 Z" id="path1937" stroke="#ED037C" stroke-width="4.8" fill="#FFFFFF"></path>
                    <path d="M62.2677165,204.790094 L94.5134982,204.790094 L94.5134982,161.708637 C94.5134982,161.708637 93.9188672,145.801643 78.0832907,145.801643 C63.3551563,145.801643 62.2677165,161.708637 62.2677165,161.708637 L62.2677165,204.790094" id="path1939" stroke="#ED037C" stroke-width="4.8"></path>
                    <path d="M79.1637534,145.900411 C68.5364506,145.94768 65.2505907,158.482048 65.2505907,158.482048 L65.2922509,203.677104 L62.2677165,203.677104 L62.2677165,160.450078 C62.2677165,160.450078 63.15155,144.688653 78.3717637,144.688653 C90.434826,144.688653 92.2896512,151.956331 92.2896512,151.956331 C92.2896512,151.956331 89.5598693,145.900411 79.1623328,145.900411" id="path1941"></path>
                    <path d="M185.691226,204.790094 L217.937008,204.790094 L217.937008,161.708637 C217.937008,161.708637 217.342377,145.801643 201.50727,145.801643 C186.778673,145.801643 185.691226,161.708637 185.691226,161.708637 L185.691226,204.790094" id="path1943" stroke="#ED037C" stroke-width="4.8"></path>
                    <path d="M202.587266,145.900411 C191.959958,145.94768 188.674107,158.482048 188.674107,158.482048 L188.715767,203.677104 L185.691226,203.677104 L185.691226,160.450078 C185.691226,160.450078 186.575538,144.688653 201.795269,144.688653 C212.835018,144.688653 215.713161,151.751506 215.713161,151.751506 C215.713161,151.751506 212.419257,145.900411 202.585846,145.900411" id="path1945"></path>
                    <path d="M180.023924,93.4911299 C180.083397,93.4911299 180.131608,93.4419992 180.131608,93.3817617 L180.131608,76.3643641 C180.131608,76.3643641 177.731603,70.1369714 169.93469,70.1183672 C162.880632,70.1055212 160.116985,76.3643641 160.116985,76.3643641 L160.116985,93.3817617 C160.116985,93.4421641 160.16106,93.4911299 160.224669,93.4911299 L180.023924,93.4911299 Z" id="path1929" stroke="#ED037C" stroke-width="4.8"></path>
                    <path d="M242.291641,93.4911299 C242.351113,93.4911299 242.399325,93.4419992 242.399325,93.3817617 L242.399325,76.3643641 C242.399325,76.3643641 239.999319,70.1369714 232.202407,70.1183672 C225.148348,70.1055212 222.384702,76.3643641 222.384702,76.3643641 L222.384702,93.3817617 C222.384702,93.4421641 222.428777,93.4911299 222.492386,93.4911299 L242.291641,93.4911299 Z" id="path1929" stroke="#ED037C" stroke-width="4.8"></path>
                </g>
            </g>
        </g>
    </g>
</svg>